<?xml version="1.0" encoding="UTF-8" standalone="no"?>
<svg width="32px" height="32px" viewBox="0 0 32 32" version="1.1" xmlns="http://www.w3.org/2000/svg" xmlns:xlink="http://www.w3.org/1999/xlink">
    <!-- Generator: Sketch 3.7 (28169) - http://www.bohemiancoding.com/sketch -->
    <title>icon-footer-feedly</title>
    <desc>Created with Sketch.</desc>
    <defs></defs>
    <g id="Page-1" stroke="none" stroke-width="1" fill="none" fill-rule="evenodd">
        <g id="icon-footer-feedly">
            <path d="M27,32 L5,32 C2.239,32 0,29.761 0,27 L0,5 C0,2.239 2.239,0 5,0 L27,0 C29.761,0 32,2.239 32,5 L32,27 C32,29.761 29.761,32 27,32" id="Fill-12" fill="#86BF1F"></path>
            <path d="M18.1924,5.306 C16.9994,4.116 15.0654,4.116 13.8734,5.306 L3.8204,15.342 C2.6274,16.532 2.6274,18.462 3.8204,19.653 L11.0684,26.905 C11.3724,27.209 12.1234,27.587 12.6754,27.587 L19.3404,27.587 C19.7564,27.587 20.6314,27.271 21.0224,26.881 L28.2454,19.653 C29.4384,18.462 29.4384,16.532 28.2454,15.342 L18.1924,5.306 Z M16.3304,9.617 L17.8204,11.104 C17.9844,11.268 17.9844,11.535 17.8204,11.699 L10.5964,18.914 C10.5244,18.986 10.4554,18.989 10.4124,18.989 L9.4384,18.989 C9.4004,18.989 9.3294,18.988 9.2584,18.917 L8.1394,17.794 C7.9744,17.63 7.9744,17.364 8.1394,17.2 L15.7354,9.617 C15.8994,9.453 16.1664,9.453 16.3304,9.617 L16.3304,9.617 Z M16.3304,15.713 L17.8204,17.2 C17.9844,17.364 17.9844,17.63 17.8204,17.794 L13.6504,21.955 C13.5774,22.027 13.5084,22.029 13.4654,22.029 L12.4924,22.029 C12.4534,22.029 12.3824,22.028 12.3114,21.957 L11.1924,20.842 C11.0284,20.678 11.0284,20.411 11.1924,20.247 L15.7354,15.713 C15.8994,15.549 16.1664,15.549 16.3304,15.713 L16.3304,15.713 Z M16.3184,21.821 L17.8074,23.308 C17.9724,23.472 17.9724,23.738 17.8074,23.902 L16.7024,24.996 C16.6314,25.068 16.5624,25.07 16.5194,25.07 L15.5454,25.07 C15.5074,25.07 15.4364,25.069 15.3644,24.999 L14.2454,23.89 C14.0804,23.725 14.0804,23.459 14.2454,23.295 L15.7224,21.821 C15.8874,21.657 16.1534,21.657 16.3184,21.821 L16.3184,21.821 Z" id="Fill-14" fill="#FFFFFF"></path>
        </g>
    </g>
</svg>