<?xml version="1.0" encoding="UTF-8" standalone="no"?>
<svg width="32px" height="32px" viewBox="0 0 32 32" version="1.1" xmlns="http://www.w3.org/2000/svg" xmlns:xlink="http://www.w3.org/1999/xlink">
    <!-- Generator: Sketch 3.7 (28169) - http://www.bohemiancoding.com/sketch -->
    <title>icon-footer-facebook</title>
    <desc>Created with Sketch.</desc>
    <defs></defs>
    <g id="Page-1" stroke="none" stroke-width="1" fill="none" fill-rule="evenodd">
        <g id="icon-footer-facebook">
            <path d="M27,32 L5,32 C2.239,32 0,29.761 0,27 L0,5 C0,2.239 2.239,0 5,0 L27,0 C29.761,0 32,2.239 32,5 L32,27 C32,29.761 29.761,32 27,32" id="Fill-21" fill="#3C539F"></path>
            <path d="M21.4,9.05 L19.438,9.05 C17.9,9.05 17.613,9.788 17.613,10.85 L17.613,13.212 L21.275,13.212 L20.788,16.913 L17.613,16.913 L17.613,26.4 L13.788,26.4 L13.788,16.913 L10.6,16.913 L10.6,13.212 L13.788,13.212 L13.788,10.487 C13.788,7.325 15.725,5.6 18.55,5.6 C19.9,5.6 21.063,5.7 21.4,5.75 L21.4,9.05 Z" id="Fill-23" fill="#FFFFFF"></path>
        </g>
    </g>
</svg>