<?xml version="1.0" encoding="UTF-8" standalone="no"?>
<svg width="32px" height="32px" viewBox="0 0 32 32" version="1.1" xmlns="http://www.w3.org/2000/svg" xmlns:xlink="http://www.w3.org/1999/xlink">
    <!-- Generator: Sketch 3.7 (28169) - http://www.bohemiancoding.com/sketch -->
    <title>icon-footer-hatenabookmark</title>
    <desc>Created with Sketch.</desc>
    <defs></defs>
    <g id="Page-1" stroke="none" stroke-width="1" fill="none" fill-rule="evenodd">
        <g id="icon-footer-hatenabookmark">
            <path d="M27,32 L5,32 C2.239,32 0,29.761 0,27 L0,5 C0,2.239 2.239,0 5,0 L27,0 C29.761,0 32,2.239 32,5 L32,27 C32,29.761 29.761,32 27,32 L27,32 Z" id="Fill-1" fill="#00A4DE"></path>
            <path d="M14.3323,20.2931 C13.9453,20.5311 13.2773,20.6481 12.3413,20.6481 L10.9553,20.6481 L10.9553,17.4701 L12.4013,17.4701 C13.3623,17.4701 14.0273,17.5911 14.3813,17.8331 C14.7403,18.0741 14.9173,18.5011 14.9173,19.1141 C14.9173,19.6631 14.7233,20.0571 14.3323,20.2931 L14.3323,20.2931 Z M10.9553,11.9521 L11.8073,11.9521 C12.7903,11.9521 13.4513,12.0631 13.7933,12.2841 C14.1293,12.5061 14.3013,12.8901 14.3013,13.4361 C14.3013,13.9621 14.1183,14.3321 13.7573,14.5491 C13.3913,14.7631 12.7243,14.8701 11.7473,14.8701 L10.9553,14.8701 L10.9553,11.9521 Z M17.8023,16.5191 C17.2233,15.8711 16.4173,15.5071 15.3833,15.4281 C16.3023,15.1771 16.9703,14.8111 17.3933,14.3211 C17.8133,13.8371 18.0223,13.1811 18.0223,12.3551 C18.0223,11.7011 17.8793,11.1231 17.6023,10.6231 C17.3183,10.1261 16.9103,9.7291 16.3743,9.4311 C15.9053,9.1731 15.3473,8.9911 14.6973,8.8841 C14.0443,8.7801 12.9013,8.7271 11.2613,8.7271 L7.2723,8.7271 L7.2723,23.2731 L11.3823,23.2731 C13.0323,23.2731 14.2233,23.2151 14.9513,23.1041 C15.6783,22.9901 16.2883,22.7981 16.7823,22.5341 C17.3933,22.2111 17.8593,21.7531 18.1843,21.1631 C18.5123,20.5721 18.6743,19.8901 18.6743,19.1101 C18.6743,18.0311 18.3843,17.1651 17.8023,16.5191 L17.8023,16.5191 Z" id="Fill-3" fill="#FFFFFF"></path>
            <path d="M22.8852,19.5879 C21.8672,19.5879 21.0422,20.4119 21.0422,21.4299 C21.0422,22.4479 21.8672,23.2729 22.8852,23.2729 C23.9022,23.2729 24.7272,22.4479 24.7272,21.4299 C24.7272,20.4119 23.9022,19.5879 22.8852,19.5879" id="Fill-5" fill="#FFFFFF"></path>
            <polygon id="Fill-7" fill="#FFFFFF" points="21.285 18.424 24.485 18.424 24.485 8.727 21.285 8.727"></polygon>
        </g>
    </g>
</svg>