<?xml version="1.0" encoding="UTF-8" standalone="no"?>
<svg width="32px" height="32px" viewBox="0 0 32 32" version="1.1" xmlns="http://www.w3.org/2000/svg" xmlns:xlink="http://www.w3.org/1999/xlink">
    <!-- Generator: Sketch 3.7 (28169) - http://www.bohemiancoding.com/sketch -->
    <title>icon-footer-twitter</title>
    <desc>Created with Sketch.</desc>
    <defs></defs>
    <g id="Page-1" stroke="none" stroke-width="1" fill="none" fill-rule="evenodd">
        <g id="icon-footer-twitter">
            <path d="M27,32 L5,32 C2.239,32 0,29.761 0,27 L0,5 C0,2.239 2.239,0 5,0 L27,0 C29.761,0 32,2.239 32,5 L32,27 C32,29.761 29.761,32 27,32" id="Fill-17" fill="#55ACEE"></path>
            <path d="M24.1458,10.7501 C25.0618,10.2081 25.7498,9.3331 26.0838,8.3131 C25.2288,8.8121 24.2918,9.1871 23.2908,9.3751 C22.4998,8.5211 21.3538,8.0001 20.1038,8.0001 C17.6868,8.0001 15.7288,9.9581 15.7288,12.3751 C15.7288,12.7081 15.7498,13.0621 15.8328,13.3751 C12.1868,13.1871 8.9578,11.4581 6.7918,8.7921 C6.4168,9.4371 6.1868,10.2081 6.1868,11.0001 C6.1868,12.5211 6.8948,13.8541 8.0828,14.6461 C7.3538,14.6251 6.6668,14.4171 5.9988,14.1041 L5.9988,14.1461 C5.9988,16.2711 7.6038,18.0421 9.6038,18.4371 C9.2288,18.5411 8.9368,18.6041 8.5408,18.6041 C8.2708,18.6041 7.9998,18.5621 7.7288,18.5211 C8.2918,20.2501 9.8958,21.5211 11.8118,21.5621 C10.3118,22.7291 8.4378,23.4371 6.3748,23.4371 C6.0198,23.4371 5.6658,23.4171 5.3338,23.3751 C7.2708,24.6041 9.5618,25.3331 12.0408,25.3331 C20.0828,25.3331 24.4998,18.6671 24.4998,12.8751 C24.4998,12.6871 24.4998,12.5001 24.4788,12.3131 C25.3338,11.7081 26.0838,10.9381 26.6668,10.0421 C25.8748,10.3961 25.0418,10.6251 24.1458,10.7501" id="Fill-19" fill="#FFFFFF"></path>
        </g>
    </g>
</svg>