<?xml version="1.0" encoding="UTF-8" standalone="no"?>
<svg width="32px" height="32px" viewBox="0 0 32 32" version="1.1" xmlns="http://www.w3.org/2000/svg" xmlns:xlink="http://www.w3.org/1999/xlink">
    <!-- Generator: Sketch 3.7 (28169) - http://www.bohemiancoding.com/sketch -->
    <title>icon-footer-pocket</title>
    <desc>Created with Sketch.</desc>
    <defs></defs>
    <g id="Page-1" stroke="none" stroke-width="1" fill="none" fill-rule="evenodd">
        <g id="icon-footer-pocket">
            <path d="M27,32 L5,32 C2.239,32 0,29.761 0,27 L0,5 C0,2.239 2.239,0 5,0 L27,0 C29.761,0 32,2.239 32,5 L32,27 C32,29.761 29.761,32 27,32" id="Fill-25" fill="#E7364A"></path>
            <path d="M20.5687,14.8315 L16.7757,18.4695 C16.5617,18.6745 16.2857,18.7775 16.0107,18.7775 C15.7347,18.7775 15.4587,18.6745 15.2457,18.4695 L11.4517,14.8315 C11.0117,14.4085 10.9967,13.7095 11.4197,13.2685 C11.8417,12.8275 12.5417,12.8135 12.9827,13.2355 L16.0107,16.1395 L19.0377,13.2355 C19.4787,12.8135 20.1787,12.8275 20.6007,13.2675 C21.0237,13.7095 21.0087,14.4085 20.5687,14.8315 M23.9827,9.7635 C23.7737,9.1875 23.2207,8.7995 22.6087,8.7995 L22.6007,8.7995 L21.2127,8.7995 L9.3997,8.7995 C8.7977,8.7995 8.2477,9.1795 8.0337,9.7425 C7.9697,9.9105 7.9377,10.0855 7.9377,10.2625 L7.9377,15.1275 L7.9927,16.0955 C8.2267,18.2965 9.3687,20.2195 11.1367,21.5605 C11.1677,21.5845 11.2007,21.6085 11.2327,21.6325 L11.2527,21.6465 C12.2007,22.3395 13.2607,22.8075 14.4057,23.0385 C14.9337,23.1455 15.4737,23.1995 16.0107,23.1995 C16.5057,23.1995 17.0037,23.1545 17.4937,23.0635 C17.5527,23.0515 17.6107,23.0405 17.6697,23.0275 C17.6857,23.0245 17.7037,23.0185 17.7217,23.0095 C18.8167,22.7695 19.8347,22.3135 20.7477,21.6465 L20.7677,21.6325 C20.7997,21.6085 20.8317,21.5845 20.8637,21.5605 C22.6307,20.2195 23.7737,18.2965 24.0067,16.0955 L24.0627,15.1275 L24.0627,10.2625 C24.0627,10.0945 24.0427,9.9275 23.9827,9.7635" id="Fill-27" fill="#FFFFFF"></path>
            <path d="M20.5687,14.8315 L16.7757,18.4695 C16.5617,18.6745 16.2857,18.7775 16.0107,18.7775 C15.7347,18.7775 15.4587,18.6745 15.2457,18.4695 L11.4517,14.8315 C11.0117,14.4085 10.9967,13.7095 11.4197,13.2685 C11.8417,12.8275 12.5417,12.8135 12.9827,13.2355 L16.0107,16.1395 L19.0377,13.2355 C19.4787,12.8135 20.1787,12.8275 20.6007,13.2675 C21.0237,13.7095 21.0087,14.4085 20.5687,14.8315" id="Fill-29" fill="#E7364A"></path>
        </g>
    </g>
</svg>