<?xml version="1.0" encoding="UTF-8" standalone="no"?>
<svg width="32px" height="32px" viewBox="0 0 32 32" version="1.1" xmlns="http://www.w3.org/2000/svg" xmlns:xlink="http://www.w3.org/1999/xlink">
    <!-- Generator: Sketch 3.7 (28169) - http://www.bohemiancoding.com/sketch -->
    <title>icon-footer-googleplus</title>
    <desc>Created with Sketch.</desc>
    <defs></defs>
    <g id="Page-1" stroke="none" stroke-width="1" fill="none" fill-rule="evenodd">
        <g id="icon-footer-googleplus">
            <path d="M27,32 L5,32 C2.239,32 0,29.761 0,27 L0,5 C0,2.239 2.239,0 5,0 L27,0 C29.761,0 32,2.239 32,5 L32,27 C32,29.761 29.761,32 27,32" id="Fill-9" fill="#DD4B39"></path>
            <path d="M7.2335,15.9861 C7.1245,13.1111 9.6425,10.4541 12.5215,10.4191 C13.9885,10.2941 15.4155,10.8641 16.5255,11.7931 C16.0705,12.2931 15.6065,12.7881 15.1115,13.2521 C14.1345,12.6581 12.9575,12.2051 11.8155,12.6071 C9.9735,13.1321 8.8575,15.3071 9.5395,17.1101 C10.1035,18.9921 12.3935,20.0251 14.1875,19.2341 C15.1165,18.9011 15.7295,18.0441 15.9985,17.1231 C14.9335,17.1021 13.8685,17.1151 12.8035,17.0861 C12.8005,16.4521 12.7975,15.8211 12.8005,15.1871 C14.5765,15.1851 16.3545,15.1791 18.1335,15.1951 C18.2425,16.7471 18.0135,18.4091 17.0045,19.6551 C15.6225,21.4331 13.0695,21.9551 10.9925,21.2581 C8.7885,20.5331 7.1855,18.3131 7.2335,15.9861" id="Fill-10" fill="#FFFFFF"></path>
            <path d="M21.5945,13.5899 L23.1785,13.5899 C23.1815,14.1199 23.1865,14.6519 23.1895,15.1819 C23.7195,15.1869 24.2515,15.1899 24.7815,15.1929 L24.7815,16.7799 C24.2515,16.7819 23.7195,16.7849 23.1895,16.7879 C23.1835,17.3199 23.1815,17.8499 23.1785,18.3819 C22.6485,18.3799 22.1185,18.3819 21.5915,18.3819 C21.5865,17.8499 21.5865,17.3199 21.5815,16.7899 C21.0515,16.7849 20.5185,16.7819 19.9895,16.7799 L19.9895,15.1929 C20.5185,15.1899 21.0485,15.1869 21.5815,15.1819 C21.5835,14.6519 21.5895,14.1199 21.5945,13.5899" id="Fill-11" fill="#FFFFFF"></path>
        </g>
    </g>
</svg>